<svg width="281" height="108" viewBox="0 0 281 108" fill="none" xmlns="http://www.w3.org/2000/svg">
<path d="M273.847 46.9565H261.216C257.654 20.3322 234.784 0 207.095 0C180.386 0 158.155 18.9235 153.449 43.9231L153.402 44.2518C149.535 43.0873 145.096 42.4205 140.495 42.4205C135.895 42.4205 131.456 43.0873 127.265 44.3363L127.589 44.2518C122.836 18.9235 100.604 0 73.8957 0C46.2063 0 23.3365 20.3322 19.8027 46.6842L19.7741 46.9565H7.14383C3.20043 46.9565 0 50.112 0 54C0 57.888 3.20043 61.043 7.14383 61.043H19.7741C23.2889 87.658 46.1396 108 73.81 108C102.204 108 125.522 86.578 128.055 59.231L128.075 59.024C131.742 57.484 136.018 56.592 140.495 56.592C144.972 56.592 149.249 57.484 153.135 59.099L152.925 59.024C155.469 86.578 178.786 108 207.19 108C234.86 108 257.711 87.658 261.197 61.316L261.226 61.043H273.856C277.8 61.043 281 57.888 281 54C281 50.112 277.79 46.9565 273.847 46.9565ZM73.8195 93.913C51.4641 93.913 33.3379 76.041 33.3379 54C33.3379 31.9586 51.4641 14.087 73.8195 14.087C96.1749 14.087 114.301 31.9586 114.301 54C114.273 76.032 96.1654 93.885 73.8195 93.913ZM207.171 93.913C184.816 93.913 166.689 76.041 166.689 54C166.689 31.9586 184.816 14.087 207.171 14.087C229.526 14.087 247.653 31.9586 247.653 54C247.624 76.032 229.517 93.885 207.171 93.913Z" fill="#2762EA"/>
<path d="M202.417 35.75V29.8333M202.417 77.167V71.25M214.583 35.75V29.8333M214.583 77.167V71.25M227.426 47.5833H232.833M184.167 47.5833H189.574M227.426 59.417H232.833M184.167 59.417H189.574M202.417 47.5833H214.583V59.417H202.417V47.5833ZM196.333 71.25H220.667C224.026 71.25 226.75 68.601 226.75 65.333V41.6667C226.75 38.399 224.026 35.75 220.667 35.75H196.333C192.974 35.75 190.25 38.399 190.25 41.6667V65.333C190.25 68.601 192.974 71.25 196.333 71.25Z" stroke="black" stroke-width="5" stroke-linecap="round" stroke-linejoin="round"/>
<mask id="mask0_41_98" style="mask-type:luminance" maskUnits="userSpaceOnUse" x="45" y="26" width="59" height="56">
<path d="M104 26H45V82H104V26Z" fill="white"/>
</mask>
<g mask="url(#mask0_41_98)">
<mask id="path-4-inside-1_41_98" fill="white">
<path d="M101.05 47.8167L95.3958 43.3833V34.75C95.3919 34.5263 95.3203 34.3084 95.1896 34.1222C95.0588 33.936 94.8744 33.7895 94.6583 33.7L82.4896 28.45H81.9979L81.2604 28.6833L74.5 32.8833L67.7396 28.5667L67.0021 28.3333H66.5104L54.3416 33.7C54.1256 33.7895 53.9412 33.936 53.8104 34.1222C53.6797 34.3084 53.6081 34.5263 53.6041 34.75V43.3833L47.95 47.8167C47.7794 47.9081 47.6415 48.046 47.5539 48.212C47.4663 48.378 47.433 48.566 47.4583 48.75V59.25C47.433 59.434 47.4663 59.622 47.5539 59.788C47.6415 59.954 47.7794 60.092 47.95 60.183L53.6041 64.617V73.25C53.6081 73.474 53.6797 73.692 53.8104 73.878C53.9412 74.064 54.1256 74.211 54.3416 74.3L66.5104 79.55H67.0021L67.7396 79.317L74.5 75.117L81.2604 79.433L81.9979 79.667H82.4896L94.6583 74.417C94.8744 74.327 95.0588 74.181 95.1896 73.994C95.3203 73.808 95.3919 73.59 95.3958 73.367V64.617L101.05 60.183C101.201 60.101 101.326 59.982 101.412 59.838C101.499 59.695 101.543 59.532 101.542 59.367V48.633C101.543 48.468 101.499 48.305 101.412 48.162C101.326 48.018 101.201 47.8993 101.05 47.8167ZM94.7812 55.75H96.625V57.617L92.3229 60.883L91.8312 61.233L91.3396 61C91.1253 60.883 90.887 60.811 90.641 60.79C90.3949 60.768 90.1468 60.797 89.9135 60.874C89.6803 60.952 89.4673 61.076 89.2892 61.239C89.1111 61.401 88.9719 61.598 88.8812 61.817C88.6607 62.22 88.6144 62.69 88.752 63.125C88.8897 63.561 89.2005 63.928 89.6187 64.15L90.4792 64.5V70.8L82.3666 74.417L77.2042 71.15L76.3437 70.567V55.75H78.1875C78.6765 55.75 79.1454 55.566 79.4912 55.237C79.837 54.909 80.0312 54.464 80.0312 54C80.0312 53.536 79.837 53.091 79.4912 52.763C79.1454 52.434 78.6765 52.25 78.1875 52.25H76.3437V37.3167L77.2042 36.7333L82.3666 33.4667L90.4792 37.0833V43.3833L89.6187 43.7333C89.2005 43.9551 88.8897 44.3227 88.752 44.7582C88.6144 45.1937 88.6607 45.663 88.8812 46.0667C89.0051 46.3741 89.2239 46.6389 89.5091 46.8263C89.7942 47.0136 90.1324 47.1149 90.4792 47.1167L91.3396 46.8833L91.8312 46.65L92.3229 47L96.625 50.383V52.25H94.7812C94.2922 52.25 93.8233 52.434 93.4775 52.763C93.1317 53.091 92.9375 53.536 92.9375 54C92.9375 54.464 93.1317 54.909 93.4775 55.237C93.8233 55.566 94.2922 55.75 94.7812 55.75ZM70.8125 55.75H72.6562V70.683L71.7958 71.267L66.6333 74.533L58.5208 70.917V64.617L59.3812 64.267C59.7994 64.045 60.1103 63.677 60.248 63.242C60.3856 62.806 60.3393 62.337 60.1187 61.933C60.028 61.715 59.8889 61.518 59.7108 61.355C59.5326 61.193 59.3197 61.069 59.0864 60.991C58.8532 60.914 58.6051 60.885 58.359 60.906C58.1129 60.928 57.8747 61 57.6604 61.117L57.1687 61.35L56.6771 61L52.375 57.617V55.75H54.2187C54.7077 55.75 55.1767 55.566 55.5225 55.237C55.8682 54.909 56.0625 54.464 56.0625 54C56.0625 53.536 55.8682 53.091 55.5225 52.763C55.1767 52.434 54.7077 52.25 54.2187 52.25H52.375V50.383L56.6771 47.1167L57.1687 46.7667L57.6604 47L58.5208 47.2333C58.8676 47.2315 59.2058 47.1303 59.4909 46.9429C59.776 46.7556 59.9949 46.4908 60.1187 46.1833C60.3393 45.7797 60.3856 45.3104 60.248 44.8749C60.1103 44.4393 59.7994 44.0718 59.3812 43.85L58.5208 43.5V37.0833L66.6333 33.4667L71.7958 36.7333L72.6562 37.3167V52.25H70.8125C70.3235 52.25 69.8545 52.434 69.5088 52.763C69.163 53.091 68.9687 53.536 68.9687 54C68.9687 54.464 69.163 54.909 69.5088 55.237C69.8545 55.566 70.3235 55.75 70.8125 55.75Z"/>
</mask>
<path d="M101.05 47.8167L95.3958 43.3833V34.75C95.3919 34.5263 95.3203 34.3084 95.1896 34.1222C95.0588 33.936 94.8744 33.7895 94.6583 33.7L82.4896 28.45H81.9979L81.2604 28.6833L74.5 32.8833L67.7396 28.5667L67.0021 28.3333H66.5104L54.3416 33.7C54.1256 33.7895 53.9412 33.936 53.8104 34.1222C53.6797 34.3084 53.6081 34.5263 53.6041 34.75V43.3833L47.95 47.8167C47.7794 47.9081 47.6415 48.046 47.5539 48.212C47.4663 48.378 47.433 48.566 47.4583 48.75V59.25C47.433 59.434 47.4663 59.622 47.5539 59.788C47.6415 59.954 47.7794 60.092 47.95 60.183L53.6041 64.617V73.25C53.6081 73.474 53.6797 73.692 53.8104 73.878C53.9412 74.064 54.1256 74.211 54.3416 74.3L66.5104 79.55H67.0021L67.7396 79.317L74.5 75.117L81.2604 79.433L81.9979 79.667H82.4896L94.6583 74.417C94.8744 74.327 95.0588 74.181 95.1896 73.994C95.3203 73.808 95.3919 73.59 95.3958 73.367V64.617L101.05 60.183C101.201 60.101 101.326 59.982 101.412 59.838C101.499 59.695 101.543 59.532 101.542 59.367V48.633C101.543 48.468 101.499 48.305 101.412 48.162C101.326 48.018 101.201 47.8993 101.05 47.8167ZM94.7812 55.75H96.625V57.617L92.3229 60.883L91.8312 61.233L91.3396 61C91.1253 60.883 90.887 60.811 90.641 60.79C90.3949 60.768 90.1468 60.797 89.9135 60.874C89.6803 60.952 89.4673 61.076 89.2892 61.239C89.1111 61.401 88.9719 61.598 88.8812 61.817C88.6607 62.22 88.6144 62.69 88.752 63.125C88.8897 63.561 89.2005 63.928 89.6187 64.15L90.4792 64.5V70.8L82.3666 74.417L77.2042 71.15L76.3437 70.567V55.75H78.1875C78.6765 55.75 79.1454 55.566 79.4912 55.237C79.837 54.909 80.0312 54.464 80.0312 54C80.0312 53.536 79.837 53.091 79.4912 52.763C79.1454 52.434 78.6765 52.25 78.1875 52.25H76.3437V37.3167L77.2042 36.7333L82.3666 33.4667L90.4792 37.0833V43.3833L89.6187 43.7333C89.2005 43.9551 88.8897 44.3227 88.752 44.7582C88.6144 45.1937 88.6607 45.663 88.8812 46.0667C89.0051 46.3741 89.2239 46.6389 89.5091 46.8263C89.7942 47.0136 90.1324 47.1149 90.4792 47.1167L91.3396 46.8833L91.8312 46.65L92.3229 47L96.625 50.383V52.25H94.7812C94.2922 52.25 93.8233 52.434 93.4775 52.763C93.1317 53.091 92.9375 53.536 92.9375 54C92.9375 54.464 93.1317 54.909 93.4775 55.237C93.8233 55.566 94.2922 55.75 94.7812 55.75ZM70.8125 55.75H72.6562V70.683L71.7958 71.267L66.6333 74.533L58.5208 70.917V64.617L59.3812 64.267C59.7994 64.045 60.1103 63.677 60.248 63.242C60.3856 62.806 60.3393 62.337 60.1187 61.933C60.028 61.715 59.8889 61.518 59.7108 61.355C59.5326 61.193 59.3197 61.069 59.0864 60.991C58.8532 60.914 58.6051 60.885 58.359 60.906C58.1129 60.928 57.8747 61 57.6604 61.117L57.1687 61.35L56.6771 61L52.375 57.617V55.75H54.2187C54.7077 55.75 55.1767 55.566 55.5225 55.237C55.8682 54.909 56.0625 54.464 56.0625 54C56.0625 53.536 55.8682 53.091 55.5225 52.763C55.1767 52.434 54.7077 52.25 54.2187 52.25H52.375V50.383L56.6771 47.1167L57.1687 46.7667L57.6604 47L58.5208 47.2333C58.8676 47.2315 59.2058 47.1303 59.4909 46.9429C59.776 46.7556 59.9949 46.4908 60.1187 46.1833C60.3393 45.7797 60.3856 45.3104 60.248 44.8749C60.1103 44.4393 59.7994 44.0718 59.3812 43.85L58.5208 43.5V37.0833L66.6333 33.4667L71.7958 36.7333L72.6562 37.3167V52.25H70.8125C70.3235 52.25 69.8545 52.434 69.5088 52.763C69.163 53.091 68.9687 53.536 68.9687 54C68.9687 54.464 69.163 54.909 69.5088 55.237C69.8545 55.566 70.3235 55.75 70.8125 55.75Z" fill="#2762EA" stroke="black" stroke-width="10" mask="url(#path-4-inside-1_41_98)"/>
<mask id="path-5-inside-2_41_98" fill="white">
<path d="M62.0855 37.55C61.7864 37.9176 61.6242 38.3689 61.6242 38.8333C61.6242 39.2977 61.7864 39.7491 62.0855 40.1167L65.2813 43.0333V46.3L60.3646 50.967V57.033L65.2813 61.7V64.967L62.0855 67.883C61.7864 68.251 61.6242 68.702 61.6242 69.167C61.6242 69.631 61.7864 70.082 62.0855 70.45C62.2664 70.61 62.4793 70.734 62.7116 70.814C62.9438 70.894 63.1907 70.929 63.4375 70.917C63.6844 70.929 63.9312 70.894 64.1635 70.814C64.3958 70.734 64.6087 70.61 64.7896 70.45L68.9688 66.367V60.3L64.0521 55.633V52.367L68.9688 47.7V41.6333L64.7896 37.55C64.4023 37.2662 63.9268 37.1122 63.4375 37.1122C62.9482 37.1122 62.4728 37.2662 62.0855 37.55Z"/>
</mask>
<path d="M62.0855 37.55C61.7864 37.9176 61.6242 38.3689 61.6242 38.8333C61.6242 39.2977 61.7864 39.7491 62.0855 40.1167L65.2813 43.0333V46.3L60.3646 50.967V57.033L65.2813 61.7V64.967L62.0855 67.883C61.7864 68.251 61.6242 68.702 61.6242 69.167C61.6242 69.631 61.7864 70.082 62.0855 70.45C62.2664 70.61 62.4793 70.734 62.7116 70.814C62.9438 70.894 63.1907 70.929 63.4375 70.917C63.6844 70.929 63.9312 70.894 64.1635 70.814C64.3958 70.734 64.6087 70.61 64.7896 70.45L68.9688 66.367V60.3L64.0521 55.633V52.367L68.9688 47.7V41.6333L64.7896 37.55C64.4023 37.2662 63.9268 37.1122 63.4375 37.1122C62.9482 37.1122 62.4728 37.2662 62.0855 37.55Z" fill="#2762EA"/>
<path d="M62.0855 37.55L59.1302 33.5169L58.6123 33.8964L58.2071 34.3943L62.0855 37.55ZM62.0855 40.1167L58.2071 43.2724L58.4411 43.5599L58.715 43.8099L62.0855 40.1167ZM65.2813 43.0333H70.2813V40.8272L68.6519 39.3401L65.2813 43.0333ZM65.2813 46.3L68.7236 49.9264L70.2813 48.4478V46.3H65.2813ZM60.3646 50.967L56.9224 47.3406L55.3646 48.8192V50.967H60.3646ZM60.3646 57.033H55.3646V59.1808L56.9224 60.6594L60.3646 57.033ZM65.2813 61.7H70.2813V59.5522L68.7236 58.0736L65.2813 61.7ZM65.2813 64.967L68.6515 68.6605L70.2813 67.1734V64.967H65.2813ZM62.0855 67.883L58.7154 64.1895L58.4403 64.4405L58.2055 64.7294L62.0855 67.883ZM62.0855 70.45L58.2055 73.6036L58.4649 73.9228L58.773 74.1953L62.0855 70.45ZM62.7116 70.814L64.3403 66.0867L64.3397 66.0865L62.7116 70.814ZM63.4375 70.917L63.6802 65.9229L63.4375 65.9111L63.1947 65.9229L63.4375 70.917ZM64.7896 70.45L68.1022 74.1953L68.1951 74.1131L68.2837 74.0265L64.7896 70.45ZM68.9688 66.367L72.463 69.9435L73.9688 68.4723V66.367H68.9688ZM68.9688 60.3H73.9688V58.1522L72.4111 56.6736L68.9688 60.3ZM64.0521 55.633H59.0521V57.7808L60.6099 59.2594L64.0521 55.633ZM64.0521 52.367L60.6099 48.7406L59.0521 50.2192V52.367H64.0521ZM68.9688 47.7L72.4111 51.3264L73.9688 49.8478V47.7H68.9688ZM68.9688 41.6333H73.9688V39.5282L72.4631 38.057L68.9688 41.6333ZM64.7896 37.55L68.2839 33.9737L68.0306 33.7262L67.7449 33.5169L64.7896 37.55ZM58.2071 34.3943C57.1985 35.634 56.6242 37.1943 56.6242 38.8333H66.6242C66.6242 39.5435 66.3743 40.2012 65.9639 40.7057L58.2071 34.3943ZM56.6242 38.8333C56.6242 40.4721 57.1983 42.0325 58.2071 43.2724L65.9639 36.961C66.3745 37.4657 66.6242 38.1233 66.6242 38.8333H56.6242ZM58.715 43.8099L61.9108 46.7265L68.6519 39.3401L65.456 36.4235L58.715 43.8099ZM60.2813 43.0333V46.3H70.2813V43.0333H60.2813ZM61.8391 42.6736L56.9224 47.3406L63.8069 54.5934L68.7236 49.9264L61.8391 42.6736ZM55.3646 50.967V57.033H65.3646V50.967H55.3646ZM56.9224 60.6594L61.8391 65.3264L68.7236 58.0736L63.8069 53.4066L56.9224 60.6594ZM60.2813 61.7V64.967H70.2813V61.7H60.2813ZM61.9112 61.2735L58.7154 64.1895L65.4557 71.5765L68.6515 68.6605L61.9112 61.2735ZM58.2055 64.7294C57.1987 65.968 56.6242 67.5269 56.6242 69.167H66.6242C66.6242 69.8771 66.3741 70.534 65.9656 71.0366L58.2055 64.7294ZM56.6242 69.167C56.6242 70.8073 57.1996 72.366 58.2055 73.6036L65.9656 67.2964C66.3733 67.798 66.6242 68.4547 66.6242 69.167H56.6242ZM58.773 74.1953C59.451 74.795 60.2378 75.2502 61.0836 75.5415L64.3397 66.0865C64.7209 66.2178 65.0818 66.425 65.3981 66.7047L58.773 74.1953ZM61.0829 75.5413C61.9208 75.83 62.8031 75.9538 63.6803 75.9111L63.1947 65.9229C63.5783 65.9042 63.9669 65.958 64.3403 66.0867L61.0829 75.5413ZM63.1948 75.9111C64.0723 75.9538 64.9542 75.8299 65.7916 75.5415L62.5354 66.0865C62.9082 65.9581 63.2966 65.9042 63.6802 65.9229L63.1948 75.9111ZM65.7916 75.5415C66.6374 75.2502 67.4242 74.7949 68.1022 74.1953L61.4771 66.7047C61.7933 66.4251 62.1542 66.2178 62.5354 66.0865L65.7916 75.5415ZM68.2837 74.0265L72.463 69.9435L65.4747 62.7905L61.2955 66.8735L68.2837 74.0265ZM73.9688 66.367V60.3H63.9688V66.367H73.9688ZM72.4111 56.6736L67.4944 52.0066L60.6099 59.2594L65.5266 63.9264L72.4111 56.6736ZM69.0521 55.633V52.367H59.0521V55.633H69.0521ZM67.4944 55.9934L72.4111 51.3264L65.5266 44.0736L60.6099 48.7406L67.4944 55.9934ZM73.9688 47.7V41.6333H63.9688V47.7H73.9688ZM72.4631 38.057L68.2839 33.9737L61.2954 41.1263L65.4746 45.2096L72.4631 38.057ZM67.7449 33.5169C66.4833 32.5924 64.9683 32.1122 63.4375 32.1122V42.1122C62.8853 42.1122 62.3213 41.94 61.8343 41.5831L67.7449 33.5169ZM63.4375 32.1122C61.9065 32.1122 60.3917 32.5925 59.1302 33.5169L65.0409 41.5831C64.554 41.9399 63.99 42.1122 63.4375 42.1122V32.1122Z" fill="black" mask="url(#path-5-inside-2_41_98)"/>
<mask id="path-7-inside-3_41_98" fill="white">
<path d="M83.7189 43.0333L86.9146 40.1167C87.2136 39.7491 87.3759 39.2977 87.3759 38.8333C87.3759 38.3689 87.2136 37.9176 86.9146 37.55C86.5273 37.2662 86.0519 37.1122 85.5626 37.1122C85.0733 37.1122 84.5978 37.2662 84.2105 37.55L80.0312 41.6333V47.7L84.948 52.367V55.633L80.0312 60.3V66.367L84.2105 70.45C84.5881 70.754 85.0673 70.921 85.5626 70.921C86.0579 70.921 86.537 70.754 86.9146 70.45C87.2136 70.082 87.3759 69.631 87.3759 69.167C87.3759 68.702 87.2136 68.251 86.9146 67.883L83.7189 64.967V61.7L88.6355 57.033V50.967L83.7189 46.3V43.0333Z"/>
</mask>
<path d="M83.7189 43.0333L86.9146 40.1167C87.2136 39.7491 87.3759 39.2977 87.3759 38.8333C87.3759 38.3689 87.2136 37.9176 86.9146 37.55C86.5273 37.2662 86.0519 37.1122 85.5626 37.1122C85.0733 37.1122 84.5978 37.2662 84.2105 37.55L80.0312 41.6333V47.7L84.948 52.367V55.633L80.0312 60.3V66.367L84.2105 70.45C84.5881 70.754 85.0673 70.921 85.5626 70.921C86.0579 70.921 86.537 70.754 86.9146 70.45C87.2136 70.082 87.3759 69.631 87.3759 69.167C87.3759 68.702 87.2136 68.251 86.9146 67.883L83.7189 64.967V61.7L88.6355 57.033V50.967L83.7189 46.3V43.0333Z" fill="#2762EA"/>
<path d="M83.7189 43.0333L80.3483 39.3401L78.7189 40.8272V43.0333H83.7189ZM86.9146 40.1167L90.2852 43.8099L90.5593 43.5597L90.7935 43.2717L86.9146 40.1167ZM86.9146 37.55L90.7935 34.395L90.3882 33.8966L89.87 33.5169L86.9146 37.55ZM84.2105 37.55L81.2551 33.5169L80.9695 33.7262L80.7162 33.9737L84.2105 37.55ZM80.0312 41.6333L76.537 38.057L75.0312 39.5282V41.6333H80.0312ZM80.0312 47.7H75.0312V49.8478L76.589 51.3264L80.0312 47.7ZM84.948 52.367H89.948V50.2192L88.3902 48.7406L84.948 52.367ZM84.948 55.633L88.3902 59.2594L89.948 57.7808V55.633H84.948ZM80.0312 60.3L76.589 56.6736L75.0312 58.1522V60.3H80.0312ZM80.0312 66.367H75.0312V68.4723L76.5371 69.9435L80.0312 66.367ZM84.2105 70.45L80.7163 74.0265L80.888 74.1942L81.0749 74.3447L84.2105 70.45ZM86.9146 70.45L90.0502 74.3447L90.4619 74.0132L90.7952 73.603L86.9146 70.45ZM86.9146 67.883L90.7952 64.73L90.5602 64.4407L90.2848 64.1895L86.9146 67.883ZM83.7189 64.967H78.7189V67.1734L80.3487 68.6605L83.7189 64.967ZM83.7189 61.7L80.2766 58.0736L78.7189 59.5522V61.7H83.7189ZM88.6355 57.033L92.0777 60.6594L93.6355 59.1807V57.033H88.6355ZM88.6355 50.967H93.6355V48.8193L92.0777 47.3406L88.6355 50.967ZM83.7189 46.3H78.7189V48.4478L80.2766 49.9264L83.7189 46.3ZM87.0894 46.7265L90.2852 43.8099L83.5441 36.4235L80.3483 39.3401L87.0894 46.7265ZM90.7935 43.2717C91.8018 42.0322 92.3759 40.472 92.3759 38.8333H82.3759C82.3759 38.1234 82.6255 37.466 83.0358 36.9617L90.7935 43.2717ZM92.3759 38.8333C92.3759 37.1943 91.8016 35.6343 90.7935 34.395L83.0358 40.705C82.6257 40.2009 82.3759 39.5435 82.3759 38.8333H92.3759ZM89.87 33.5169C88.6083 32.5924 87.0934 32.1122 85.5626 32.1122V42.1122C85.0103 42.1122 84.4464 41.94 83.9593 41.5831L89.87 33.5169ZM85.5626 32.1122C84.0317 32.1122 82.5168 32.5924 81.2551 33.5169L87.1658 41.5831C86.6787 41.94 86.1148 42.1122 85.5626 42.1122V32.1122ZM80.7162 33.9737L76.537 38.057L83.5255 45.2096L87.7047 41.1263L80.7162 33.9737ZM75.0312 41.6333V47.7H85.0312V41.6333H75.0312ZM76.589 51.3264L81.5057 55.9934L88.3902 48.7406L83.4735 44.0736L76.589 51.3264ZM79.948 52.367V55.633H89.948V52.367H79.948ZM81.5057 52.0066L76.589 56.6736L83.4735 63.9264L88.3902 59.2594L81.5057 52.0066ZM75.0312 60.3V66.367H85.0312V60.3H75.0312ZM76.5371 69.9435L80.7163 74.0265L87.7046 66.8735L83.5254 62.7905L76.5371 69.9435ZM81.0749 74.3447C82.3612 75.3802 83.9527 75.921 85.5626 75.921V65.921C86.1818 65.921 86.8149 66.1278 87.346 66.5553L81.0749 74.3447ZM85.5626 75.921C87.1724 75.921 88.7639 75.3802 90.0502 74.3447L83.7791 66.5553C84.3102 66.1278 84.9433 65.921 85.5626 65.921V75.921ZM90.7952 73.603C91.8005 72.3656 92.3759 70.8073 92.3759 69.167H82.3759C82.3759 68.4547 82.6268 67.7983 83.0341 67.297L90.7952 73.603ZM92.3759 69.167C92.3759 67.527 91.8014 65.9684 90.7952 64.73L83.0341 71.036C82.6259 70.5336 82.3759 69.877 82.3759 69.167H92.3759ZM90.2848 64.1895L87.089 61.2735L80.3487 68.6605L83.5445 71.5765L90.2848 64.1895ZM88.7189 64.967V61.7H78.7189V64.967H88.7189ZM87.1611 65.3264L92.0777 60.6594L85.1932 53.4066L80.2766 58.0736L87.1611 65.3264ZM93.6355 57.033V50.967H83.6355V57.033H93.6355ZM92.0777 47.3406L87.1611 42.6736L80.2766 49.9264L85.1932 54.5934L92.0777 47.3406ZM88.7189 46.3V43.0333H78.7189V46.3H88.7189Z" fill="black" mask="url(#path-7-inside-3_41_98)"/>
</g>
</svg>
